HIERARCHY
ROOT hip
{
  OFFSET 0 0 0
  CHANNELS 6 Xposition Yposition Zposition Zrotation Yrotation Xrotation
  JOINT abdomen
  {
    OFFSET 0 20.6881 -0.73152
    CHANNELS 3 Zrotation Xrotation Yrotation
    JOINT chest
    {
      OFFSET 0 11.7043 -0.48768
      CHANNELS 3 Zrotation Xrotation Yrotation
      JOINT neck
      {
        OFFSET 0 22.1894 -2.19456
        CHANNELS 3 Zrotation Xrotation Yrotation
        JOINT head
        {
          OFFSET -0.24384 7.07133 1.2192
          CHANNELS 3 Zrotation Xrotation Yrotation
          JOINT leftEye
          {
            OFFSET 4.14528 8.04674 8.04672
            CHANNELS 3 Zrotation Xrotation Yrotation
            End Site
            {
              OFFSET 1 0 0
            }
          }
          JOINT rightEye
          {
            OFFSET -3.6576 8.04674 8.04672
            CHANNELS 3 Zrotation Xrotation Yrotation
            End Site
            {
              OFFSET 1 0 0
            }
          }
        }
      }
      JOINT rCollar
      {
        OFFSET -2.68224 19.2634 -4.8768
        CHANNELS 3 Zrotation Xrotation Yrotation
        JOINT rShldr
        {
          OFFSET -8.77824 -1.95073 1.46304
          CHANNELS 3 Zrotation Xrotation Yrotation
          JOINT rForeArm
          {
            OFFSET -28.1742 -1.7115 0.48768
            CHANNELS 3 Zrotation Xrotation Yrotation
            JOINT rHand
            {
              OFFSET -22.5879 0.773209 7.07136
              CHANNELS 3 Zrotation Xrotation Yrotation
              JOINT rThumb1
              {
                OFFSET -1.2192 -0.487915 3.41376
                CHANNELS 3 Zrotation Xrotation Yrotation
                JOINT rThumb2
                {
                  OFFSET -3.37035 -0.52449 3.41376
                  CHANNELS 3 Zrotation Xrotation Yrotation
                  End Site
                  {
                    OFFSET -1.78271 -1.18214 1.43049
                  }
                }
              }
              JOINT rIndex1
              {
                OFFSET -7.75947 0.938293 5.60832
                CHANNELS 3 Zrotation Xrotation Yrotation
                JOINT rIndex2
                {
                  OFFSET -2.54057 -0.884171 1.56538
                  CHANNELS 3 Zrotation Xrotation Yrotation
                  End Site
                  {
                    OFFSET -1.62519 -0.234802 1.16502
                  }
                }
              }
              JOINT rMid1
              {
                OFFSET -8.24714 1.18213 3.41376
                CHANNELS 3 Zrotation Xrotation Yrotation
                JOINT rMid2
                {
                  OFFSET -3.10165 -0.590103 1.0647
                  CHANNELS 3 Zrotation Xrotation Yrotation
                  End Site
                  {
                    OFFSET -2.48547 -0.328903 0.83742
                  }
                }
              }
              JOINT rRing1
              {
                OFFSET -8.82822 0.546677 1.51678
                CHANNELS 3 Zrotation Xrotation Yrotation
                JOINT rRing2
                {
                  OFFSET -2.60934 -0.819778 -0.0198488
                  CHANNELS 3 Zrotation Xrotation Yrotation
                  End Site
                  {
                    OFFSET -2.33842 -0.294052 0.168128
                  }
                }
              }
              JOINT rPinky1
              {
                OFFSET -8.27202 -0.0477905 -0.4584
                CHANNELS 3 Zrotation Xrotation Yrotation
                JOINT rPinky2
                {
                  OFFSET -1.82734 -0.647385 -0.700984
                  CHANNELS 3 Zrotation Xrotation Yrotation
                  End Site
                  {
                    OFFSET -1.69225 -0.51767 -0.607171
                  }
                }
              }
            }
          }
        }
      }
      JOINT lCollar
      {
        OFFSET 2.68224 19.2634 -4.8768
        CHANNELS 3 Zrotation Xrotation Yrotation
        JOINT lShldr
        {
          OFFSET 8.77824 -1.95073 1.46304
          CHANNELS 3 Zrotation Xrotation Yrotation
          JOINT lForeArm
          {
            OFFSET 28.1742 -1.7115 0.48768
            CHANNELS 3 Zrotation Xrotation Yrotation
            JOINT lHand
            {
              OFFSET 22.5879 0.773209 7.07136
              CHANNELS 3 Zrotation Xrotation Yrotation
              JOINT lThumb1
              {
                OFFSET 1.2192 -0.487915 3.41376
                CHANNELS 3 Zrotation Xrotation Yrotation
                JOINT lThumb2
                {
                  OFFSET 3.37035 -0.52449 3.41376
                  CHANNELS 3 Zrotation Xrotation Yrotation
                  End Site
                  {
                    OFFSET 1.78271 -1.18214 1.43049
                  }
                }
              }
              JOINT lIndex1
              {
                OFFSET 7.75947 0.938293 5.60832
                CHANNELS 3 Zrotation Xrotation Yrotation
                JOINT lIndex2
                {
                  OFFSET 2.54057 -0.884171 1.56538
                  CHANNELS 3 Zrotation Xrotation Yrotation
                  End Site
                  {
                    OFFSET 1.62519 -0.234802 1.16502
                  }
                }
              }
              JOINT lMid1
              {
                OFFSET 8.24714 1.18213 3.41376
                CHANNELS 3 Zrotation Xrotation Yrotation
                JOINT lMid2
                {
                  OFFSET 3.10165 -0.590103 1.0647
                  CHANNELS 3 Zrotation Xrotation Yrotation
                  End Site
                  {
                    OFFSET 2.48547 -0.328903 0.83742
                  }
                }
              }
              JOINT lRing1
              {
                OFFSET 8.82822 0.546677 1.51678
                CHANNELS 3 Zrotation Xrotation Yrotation
                JOINT lRing2
                {
                  OFFSET 2.60934 -0.819778 -0.0198488
                  CHANNELS 3 Zrotation Xrotation Yrotation
                  End Site
                  {
                    OFFSET 2.33842 -0.294052 0.168128
                  }
                }
              }
              JOINT lPinky1
              {
                OFFSET 8.27202 -0.0477905 -0.4584
                CHANNELS 3 Zrotation Xrotation Yrotation
                JOINT lPinky2
                {
                  OFFSET 1.82734 -0.647385 -0.700984
                  CHANNELS 3 Zrotation Xrotation Yrotation
                  End Site
                  {
                    OFFSET 1.69225 -0.51767 -0.607171
                  }
                }
              }
            }
          }
        }
      }
    }
  }
  JOINT rButtock
  {
    OFFSET -8.77824 4.35084 1.2192
    CHANNELS 3 Zrotation Xrotation Yrotation
    JOINT rThigh
    {
      OFFSET 0 -1.70687 -2.19456
      CHANNELS 3 Zrotation Xrotation Yrotation
      JOINT rShin
      {
        OFFSET 0 -36.8199 0.73152
        CHANNELS 3 Zrotation Xrotation Yrotation
        JOINT rFoot
        {
          OFFSET 0.73152 -45.1104 -5.12064
          CHANNELS 3 Zrotation Xrotation Yrotation
          End Site
          {
            OFFSET -1.1221 -3.69964 12.103
          }
        }
      }
    }
  }
  JOINT lButtock
  {
    OFFSET 8.77824 4.35084 1.2192
    CHANNELS 3 Zrotation Xrotation Yrotation
    JOINT lThigh
    {
      OFFSET 0 -1.70687 -2.19456
      CHANNELS 3 Zrotation Xrotation Yrotation
      JOINT lShin
      {
        OFFSET 0 -36.8199 0.73152
        CHANNELS 3 Zrotation Xrotation Yrotation
        JOINT lFoot
        {
          OFFSET -0.73152 -45.1104 -5.12064
          CHANNELS 3 Zrotation Xrotation Yrotation
          End Site
          {
            OFFSET 1.1221 -3.69964 12.103
          }
        }
      }
    }
  }
}
MOTION
Frames:	7
Frame Time:	0.03333
62.0849 54.3762 59.8539 -164.110613 -17.474993 -179.094969 10.670492 5.168264 115.551972 -5.307691 -2.034911 -110.985684 7.667752 13.652571 54.827712 -19.265999 -13.692936 -34.375009 1.422107 -0.16985 -13.621101 14.20567 -0.612727 -4.914317 -27.64869 59.433292 28.509514 -101.47999 -17.584167 158.859712 -177.08919 14.63607 -69.995856 -12.381947 -21.990177 -4.55912 -168.432099 -2.771943 94.532798 129.212909 -51.649329 96.746064 -106.194285 36.676459 94.748049 -16.949223 43.487753 6.060426 -10.451456 26.031393 6.808099 -80.913655 64.848199 84.886853 16.090714 43.443863 -2.955371 173.792415 -44.541877 171.195312 -0.413967 0.24201 0.730682 5.032443 45.011745 15.066863 133.446188 55.232409 -135.295732 -91.376372 -57.511221 -128.787462 -72.43756 -58.958207 -89.946467 164.899848 72.760877 -153.991527 163.483522 3.799482 -87.550709 15.549745 -44.206004 -12.856911 92.623855 40.203132 -63.256151 -173.350786 -23.002852 -87.597356 77.86544 61.263145 -61.764108 166.739098 -25.647447 -136.251875 140.016052 7.601969 -175.951044 143.46 -37.353639 168.639953 147.746393 10.356433 137.28623 2.897323 12.095418 7.243633 -125.616709 70.785249 -33.935806 98.823785 57.794999 166.556025 37.813767 -13.111552 -83.080053 -113.678519 30.84039 19.795446 -12.05232 1.326409 -3.005982 94.306622 -51.00744 5.689406 -81.133515 33.759116 165.446715 -10.923072 -53.109367 -106.433731
62.3829 54.3191 59.9514 -164.049375 -17.86321 -179.18224 15.453056 5.583432 -96.557551 4.380449 -0.104385 100.489009 1.919351 10.663609 20.137991 -1.487404 -21.238287 1.959439 1.30774 -0.145103 -12.662407 13.085014 -0.63978 -5.574139 -1.163058 0.172522 -1.755466 -126.386084 21.253395 -142.832001 -66.202154 57.136149 -84.479699 -171.126108 -19.641254 149.52392 -87.066277 43.245872 46.910317 -129.270349 -23.499866 73.267034 24.922383 -42.131997 -9.674601 -170.690762 -20.069623 109.760365 -39.082252 53.613387 32.376042 32.943476 -39.553653 6.671387 13.37942 25.111978 -7.326514 -142.909093 55.170519 134.643516 -146.951602 15.283555 -142.84278 -76.397663 -47.909219 -82.128973 157.491806 -1.68983 -162.873184 162.847632 -57.5399 124.69052 -5.757668 86.740922 66.412059 -122.652058 -55.205493 -118.74502 -91.083972 -50.730481 -43.158526 138.809291 21.602025 -103.646633 18.256287 2.911957 -3.346958 164.594306 -43.657597 -99.382775 10.607512 7.198343 -0.497341 -18.017898 -24.897144 4.076588 -5.494426 -8.781733 0.237312 160.722096 -2.260777 -168.497842 -0.130735 3.950569 3.352418 -9.139937 0.533236 -10.939423 -20.935696 5.988505 -21.717637 9.646918 1.844849 90.172352 49.969247 14.134516 128.475574 99.722511 -42.176145 -179.547973 -21.78546 2.657835 -10.750111 102.599847 -43.20387 19.431895 -80.725002 35.937556 -11.586578 8.447708 0.894719 88.675557
62.5143 54.2879 60.1031 -164.594812 -16.932229 -178.724437 10.535334 5.8029 82.227378 -4.025265 -4.707792 -77.31701 -9.371132 18.745061 -66.456574 32.062593 4.140006 88.015499 3.365603 -0.386349 -13.093327 10.994536 -0.236176 -2.453639 -13.03924 43.085225 12.650169 75.189566 5.579083 2.033711 -4.426795 -3.790456 111.169934 -8.947733 -32.401234 -6.589212 -81.787733 43.005369 43.02252 23.568475 -25.0954 26.814553 18.089193 -30.157791 -8.86826 -154.501527 1.465702 111.468738 -165.605738 -21.586938 143.711052 -170.38501 4.044786 136.360454 -54.453613 84.447017 79.825157 -4.116235 60.324485 -8.164534 -1.894961 -2.908015 -1.193368 4.740673 44.887036 16.520111 0.417599 -62.207476 15.11004 -0.467358 -67.322102 64.850025 -161.710895 72.067463 130.568657 26.571527 77.017073 -21.981004 -88.592361 -50.216109 -40.829734 51.554153 29.491045 -10.35643 96.353985 40.344496 -67.592896 -12.929576 -11.728497 -15.217701 87.426258 61.485579 -72.290046 -3.860768 11.961081 -5.113341 138.90234 5.926682 -176.733974 71.691005 -73.11684 99.198543 -10.863859 23.725325 -0.212617 149.417755 20.327601 159.736781 -62.749675 34.129512 -46.393305 55.590841 22.15468 -75.517056 -46.705285 -27.651408 -46.396842 28.684104 12.17464 129.08979 -160.691698 72.639238 -20.15718 -151.232269 -10.163586 -180.0 -90.22668 -79.322089 -126.658211 113.706552 50.813104 163.012625
62.5367 54.30629999999999 60.20720000000001 -165.010157 -16.252181 -178.586793 10.635585 4.502586 112.687207 -4.484749 -2.480175 -107.43129 7.092745 12.066531 44.071532 -15.278596 -14.291193 -25.00754 5.149998 -0.562537 -12.459233 11.15102 -0.145111 -1.486418 -156.59685 -2.168379 163.824486 -12.485745 -34.574957 56.781258 -177.103194 -61.118576 -70.568805 -10.610411 -23.570337 -5.456926 -174.358707 -10.924539 93.345473 136.1493 -55.335423 101.434968 -47.646645 43.363333 38.680686 6.931873 4.80357 -4.606059 -37.426251 50.644444 31.802078 7.133444 19.050163 5.643251 9.578668 23.611581 -3.243427 90.257406 -81.986652 81.387876 -150.803812 26.126942 -143.899232 12.754583 15.581138 -4.845199 30.445061 58.540719 -30.838394 88.452205 23.255934 -85.123144 -114.745532 43.167714 116.637877 -178.727623 43.434726 -161.057317 -79.856152 -49.306253 -34.618208 90.673951 42.232292 -54.430802 -68.901746 -71.759599 -34.691237 162.109337 -61.469793 -133.420187 162.01584 4.82265 -141.227566 -157.843987 -61.915121 -120.38229 137.815563 3.548217 -177.258537 -12.59815 -30.28261 17.922855 -64.644565 78.574457 25.688519 158.643933 -2.185322 140.953855 -21.565793 6.247474 -22.375897 9.974424 2.013799 101.299543 51.199121 1.966212 83.99231 24.414213 25.059915 160.853914 -160.394162 72.424985 -20.487668 -152.479938 -8.674766 73.855038 76.534865 11.580014 -123.53363 -73.42863 -50.407854 19.590783
62.5437 54.2702 60.231500000000004 -165.202941 -16.120729 -178.643315 12.984156 7.812958 -0.0 1.730266 -6.342421 5.247668 -9.395356 20.339922 -77.310128 31.494409 8.956301 97.132545 6.305569 -0.632229 -11.439907 11.175685 -0.173752 -1.775803 -83.735244 70.392453 85.686473 -135.990431 -34.661329 126.684651 172.100184 52.947194 -60.510145 -12.869906 -13.59357 -3.763778 -3.245111 2.385287 -1.943656 -119.552388 -16.865653 110.377907 17.319482 -31.983098 -9.402472 -78.849641 51.890012 62.297383 -37.664366 50.569317 31.844136 14.077936 1.107167 1.819743 8.461445 24.690798 -1.787671 -8.305449 24.492345 15.407067 -151.16726 26.492843 -142.846276 68.254468 74.346713 -29.555175 1.30431 -1.677308 1.25592 -58.086014 6.228825 -33.297759 -175.534928 10.10531 -118.101704 -137.25844 -48.135214 -131.931871 172.673709 -5.754251 -88.820924 107.982883 13.302837 -44.009977 -61.557562 -69.840498 -27.373126 85.152306 68.104396 -73.32992 164.920364 -6.424116 -143.440231 1.518454 12.0696 -8.949369 65.999445 -75.055646 91.016734 -22.005528 -43.089025 -2.801234 124.651134 -21.64917 119.008902 152.395538 34.447228 132.136621 2.974788 0.11264 -3.83689 -13.648478 4.489282 0.813334 5.873675 37.360775 29.678981 92.45234 -81.374151 12.779238 -160.923272 72.532421 -19.927822 -151.268489 -9.905293 -180.0 -14.71748 -77.736098 123.566582 87.696703 23.824386 -18.883038
62.603699999999996 54.2153 60.1905 -165.248375 -16.292099 -178.80143 10.773621 5.099161 97.635762 -3.969532 -3.480897 -92.795879 -8.477253 15.814561 -51.463576 28.061902 -3.206565 73.55134 6.846723 -0.658824 -10.979818 10.711726 -0.245816 -2.62156 -158.095853 -47.788875 173.315728 129.175534 -12.464887 175.195731 -156.102585 10.427662 28.455728 -169.286669 -6.640994 145.147475 81.170634 -51.674152 32.72783 -152.359331 -9.563887 122.992408 -16.724746 25.792943 10.562496 3.015215 12.86389 -1.750463 -161.231826 -6.980992 141.701027 -4.602488 -0.356161 7.812797 -134.945483 -20.603473 -163.036853 26.570139 27.364367 -16.780731 -1.047849 -0.092953 -3.223527 -24.581737 -43.94109 -17.477342 156.927312 -3.154795 -162.785178 107.673717 -62.690295 76.985042 97.687047 -70.02818 79.854633 1.135058 37.618465 -8.119853 162.921223 3.742867 -87.719618 48.369995 -18.217559 -13.279331 151.427557 0.240838 -113.34514 1.933666 -6.182703 5.901991 -170.872589 -65.809014 -139.434328 1.40316 -1.68409 -3.624543 -8.323167 -7.9186 -1.037254 165.763955 -1.172765 -171.795091 -82.753499 80.136436 45.358338 11.709149 3.549512 -5.449719 157.369386 74.647998 23.379449 135.992779 76.048128 -29.442986 -44.19705 4.866888 -4.674721 104.330895 34.182507 -1.111112 16.728236 5.320163 17.608521 54.750367 -73.665588 -124.144918 79.393373 -83.758549 104.841115 103.463855 -6.966363 -175.316981
62.75770000000001 54.1809 60.1376 -165.19744 -16.605872 -178.867363 13.204306 2.886469 -180.0 -1.549508 1.197734 -175.43918 -9.844717 21.543179 -85.097109 31.625752 13.226325 103.053131 7.113823 -0.699177 -11.212301 9.893321 -0.37397 -4.318786 -157.541216 -16.876128 166.556118 -48.033379 -16.548758 32.541773 174.523742 -25.452572 -74.57782 -12.593972 -13.48069 -3.483079 -174.513029 -11.137296 91.026948 0.797932 -59.112144 9.243518 9.671717 -15.601482 -7.282758 176.962572 -43.767077 108.433712 -4.381145 8.865554 3.587815 7.278431 19.098272 -3.258595 -58.574312 80.569281 80.733377 -91.619217 -80.516376 -97.465806 -15.192655 -23.988555 -15.939296 -5.755906 -21.103328 0.108855 14.296769 42.692415 -14.119677 -161.844151 -22.408584 -107.921707 -12.589097 63.95856 -19.18232 21.01047 73.046228 -17.851126 179.663466 -12.602264 -89.381492 162.747579 1.191363 -88.59516 164.417904 -20.472555 -118.887574 3.679041 6.147972 11.356664 164.086551 -4.02987 -143.802574 6.497468 19.81453 -9.906119 136.7744 8.795148 -174.431324 134.936084 -52.447984 166.818252 169.913731 54.233847 136.926462 146.140593 -22.752267 124.173868 104.445576 57.413955 52.288752 -122.034957 72.349703 -180.0 -35.923897 -39.518299 -52.144738 -48.038734 45.98163 179.264575 135.656548 71.704681 28.139875 -136.246858 -15.701905 93.738372 77.475246 -26.627604 -46.898723 57.044345 -57.774047 -43.072759
